<svg xmlns="http://www.w3.org/2000/svg" xmlns:xlink="http://www.w3.org/1999/xlink" width="16.913" height="15.61" viewBox="0 0 16.913 15.61"><defs><style>.a{fill:#044dc3;}.b{clip-path:url(#a);}</style><clipPath id="a"><rect class="a" width="16.913" height="15.61" transform="translate(0 0)"/></clipPath></defs><g class="b"><path class="a" d="M15.612,6.505H5.2a1.3,1.3,0,0,0,0,2.6h10.41a1.3,1.3,0,0,0,1.3-1.3h0a1.3,1.3,0,0,0-1.3-1.3"/><path class="a" d="M5.2,2.6h10.41a1.3,1.3,0,0,0,1.3-1.3h0a1.3,1.3,0,0,0-1.3-1.3H5.2a1.3,1.3,0,1,0,0,2.6"/><path class="a" d="M15.612,13.01H5.2a1.3,1.3,0,1,0,0,2.6h10.41a1.3,1.3,0,0,0,1.3-1.3h0a1.3,1.3,0,0,0-1.3-1.3"/><path class="a" d="M1.3,0A1.3,1.3,0,1,0,2.6,1.3,1.3,1.3,0,0,0,1.3,0"/><path class="a" d="M1.3,6.505A1.3,1.3,0,1,0,2.6,7.8a1.3,1.3,0,0,0-1.3-1.3"/><path class="a" d="M1.3,13.01a1.3,1.3,0,1,0,1.3,1.3,1.3,1.3,0,0,0-1.3-1.3"/></g></svg>