<svg xmlns="http://www.w3.org/2000/svg" xmlns:xlink="http://www.w3.org/1999/xlink" width="175.5" height="52" viewBox="0 0 175.5 52"><defs><style>.a{fill:#a6a5a5;}.b,.g{fill:#fff;}.c{fill:#5bc8f3;}.d{fill:url(#a);}.e{fill:url(#b);}.f{fill:url(#c);}.g{stroke:#fff;stroke-miterlimit:10;stroke-width:0.2px;}</style><linearGradient id="a" x1="0.808" y1="0.5" x2="-1.573" y2="0.5" gradientUnits="objectBoundingBox"><stop offset="0" stop-color="#ffdf00"/><stop offset="0.409" stop-color="#fbbc0e"/><stop offset="0.775" stop-color="#f8a318"/><stop offset="1" stop-color="#f89b1c"/></linearGradient><linearGradient id="b" x1="0.862" y1="0.178" x2="-0.501" y2="1.948" gradientUnits="objectBoundingBox"><stop offset="0" stop-color="#ee4447"/><stop offset="1" stop-color="#c5166c"/></linearGradient><linearGradient id="c" x1="-0.507" y1="-0.956" x2="0.606" y2="0.489" gradientUnits="objectBoundingBox"><stop offset="0" stop-color="#269e6f"/><stop offset="0.051" stop-color="#2ba06e"/><stop offset="0.466" stop-color="#52b26a"/><stop offset="0.797" stop-color="#6bbc68"/><stop offset="1" stop-color="#74c168"/></linearGradient></defs><g transform="translate(-960 -1770)"><g transform="translate(960 1770)"><rect width="175.5" height="52" rx="7" transform="translate(0)"/><g transform="translate(0 0)"><path class="a" d="M179,11.04a5.466,5.466,0,0,1,5.46,5.46v39A5.466,5.466,0,0,1,179,60.96H16.5a5.466,5.466,0,0,1-5.46-5.46v-39a5.466,5.466,0,0,1,5.46-5.46H179M179,10H16.5A6.519,6.519,0,0,0,10,16.5v39A6.519,6.519,0,0,0,16.5,62H179a6.519,6.519,0,0,0,6.5-6.5v-39A6.519,6.519,0,0,0,179,10Z" transform="translate(-10 -10)"/></g><path class="b" d="M81.83,24.024a4.833,4.833,0,1,0,4.85,4.833A4.763,4.763,0,0,0,81.83,24.024Zm0,7.762a2.936,2.936,0,1,1,2.727-2.929A2.8,2.8,0,0,1,81.83,31.786ZM71.247,24.024a4.833,4.833,0,1,0,4.85,4.833A4.764,4.764,0,0,0,71.247,24.024Zm0,7.762a2.936,2.936,0,1,1,2.727-2.929A2.795,2.795,0,0,1,71.247,31.786ZM58.657,25.507v2.05h4.906a4.274,4.274,0,0,1-1.117,2.58,5.018,5.018,0,0,1-3.789,1.5,5.456,5.456,0,0,1,0-10.911,5.23,5.23,0,0,1,3.7,1.465L63.8,20.748a7.15,7.15,0,0,0-5.144-2.07,7.506,7.506,0,1,0,0,15.011,6.861,6.861,0,0,0,5.235-2.1,6.77,6.77,0,0,0,1.776-4.8,6.715,6.715,0,0,0-.109-1.282ZM110.142,27.1A4.493,4.493,0,0,0,106,24.024a4.593,4.593,0,0,0-4.558,4.833,4.729,4.729,0,0,0,4.8,4.832,4.808,4.808,0,0,0,4.027-2.141l-1.647-1.1a2.76,2.76,0,0,1-2.38,1.336,2.459,2.459,0,0,1-2.344-1.465l6.464-2.673Zm-6.591,1.611a2.652,2.652,0,0,1,2.526-2.82,1.871,1.871,0,0,1,1.794,1.026ZM98.3,33.4h2.124V19.191H98.3ZM94.819,25.1h-.074a3.346,3.346,0,0,0-2.544-1.08,4.837,4.837,0,0,0,0,9.665,3.3,3.3,0,0,0,2.544-1.1h.074v.7c0,1.849-.989,2.837-2.582,2.837A2.675,2.675,0,0,1,89.8,34.4l-1.849.768a4.605,4.605,0,0,0,4.283,2.856c2.491,0,4.6-1.465,4.6-5.035V24.316H94.819Zm-2.435,6.682a2.773,2.773,0,0,1-2.691-2.911,2.794,2.794,0,0,1,2.691-2.947,2.723,2.723,0,0,1,2.581,2.947A2.7,2.7,0,0,1,92.384,31.786Zm27.7-12.594h-5.08V33.4h2.12V28.015h2.96a4.418,4.418,0,1,0,0-8.823Zm.055,6.846h-3.015V21.169h3.015a2.435,2.435,0,1,1,0,4.868Zm13.1-2.04a3.98,3.98,0,0,0-3.783,2.175l1.882.785a2.01,2.01,0,0,1,1.937-1.041,2.041,2.041,0,0,1,2.229,1.828v.146a4.7,4.7,0,0,0-2.211-.547c-2.028,0-4.094,1.114-4.094,3.2a3.282,3.282,0,0,0,3.527,3.125,2.991,2.991,0,0,0,2.705-1.39h.073v1.1h2.048V27.927C137.561,25.4,135.678,24,133.247,24Zm-.256,7.786c-.694,0-1.663-.347-1.663-1.206,0-1.1,1.206-1.517,2.248-1.517a3.775,3.775,0,0,1,1.937.476A2.57,2.57,0,0,1,132.991,31.783Zm12.025-7.475-2.43,6.159h-.073l-2.523-6.159h-2.284l3.783,8.607L139.333,37.7h2.211l5.83-13.4Zm-19.1,9.088h2.119V19.191h-2.119Z" transform="translate(2.312 -7.396)"/><g transform="translate(12.965 9.295)"><path class="c" d="M20.574,17.569a2.6,2.6,0,0,0-.6,1.825V48.121a2.6,2.6,0,0,0,.6,1.825l.1.094L36.761,33.947v-.38L20.67,17.475Z" transform="translate(-19.973 -17.053)"/><path class="d" d="M38.251,36.838l-5.364-5.366v-.38l5.366-5.365.121.069,6.356,3.61c1.815,1.032,1.815,2.72,0,3.75l-6.356,3.611Z" transform="translate(-16.099 -14.577)"/><path class="e" d="M42.11,35.486,36.623,30,20.435,46.189a2.113,2.113,0,0,0,2.7.079L42.11,35.486" transform="translate(-19.834 -13.295)"/><path class="f" d="M42.11,28.369,23.134,17.587a2.113,2.113,0,0,0-2.7.079L36.623,33.855Z" transform="translate(-19.834 -17.15)"/></g></g><g transform="translate(1014.432 1805.012)"><path class="g" d="M52.03,39.429H51.1v-2.5h.928Z" transform="translate(-51.102 -36.932)"/><path class="g" d="M53.088,44.844V36.932h2.419a3.935,3.935,0,0,1,2.917,1.1,4.279,4.279,0,0,1,0,5.713,3.931,3.931,0,0,1-2.917,1.1Zm1.015-.972h1.4a2.967,2.967,0,0,0,2.171-.785A2.989,2.989,0,0,0,55.507,37.9H54.1Z" transform="translate(-50.506 -36.932)"/><path class="g" d="M63.741,37.9h-3.6v2.508h3.249v.952H60.137v2.508h3.6v.972H59.122V36.932h4.619Z" transform="translate(-48.696 -36.932)"/><path class="g" d="M63.79,44.844V36.932h1.238l3.845,6.154h.043l-.043-1.524V36.932h1.015v7.912h-1.06l-4.023-6.453h-.043l.043,1.525v4.928Z" transform="translate(-47.296 -36.932)"/><path class="g" d="M71.065,44.844l2.985-7.912H75.2l2.983,7.912H77.055L76.292,42.7H72.967l-.773,2.144Zm2.244-3.093H75.94l-1.294-3.57H74.6Z" transform="translate(-45.113 -36.932)"/><path class="g" d="M77.334,44.844V36.932h1.015v6.939h3.427v.972Z" transform="translate(-43.232 -36.932)"/><path class="g" d="M81.6,44.844V36.932h1.015v7.912Z" transform="translate(-41.952 -36.932)"/><path class="g" d="M83.781,44.844V36.932h1.238l3.845,6.154h.044l-.044-1.524V36.932h1.017v7.912H88.82L84.8,38.391h-.044l.044,1.525v4.928Z" transform="translate(-41.298 -36.932)"/></g></g></svg>