<svg xmlns="http://www.w3.org/2000/svg" width="163.033" height="31.656" viewBox="0 0 163.033 31.656"><defs><style>.a{fill:#e44e41;}.b{fill:#e37d34;}.c{fill:#52b449;}.d{fill:#185ba5;}.e{fill:#005396;}</style></defs><g transform="translate(-144 -20.977)"><g transform="translate(144 20.977)"><path class="a" d="M142.715,199.558a33.245,33.245,0,0,1,5.491-1.254l.035,0,.474-.047s-1.834,8.5-6.964,12.618-10.517-.23-8.3-4.957c1.494-3.18,5.328-5.152,9.261-6.356" transform="translate(-131.798 -184.019)"/><path class="b" d="M145.471,163.966h-.035a33.009,33.009,0,0,1-5.6-.576c-4.05-.715-8.1-2.205-9.967-5.18-2.779-4.42,2.037-9.391,7.632-5.93s8.45,11.675,8.45,11.675l-.451.012Z" transform="translate(-129.055 -150.74)"/><path class="c" d="M197.059,162.4a33.137,33.137,0,0,1-5.565.869h-.036l-.476.014s2.422-8.353,7.828-12.1,10.475.964,7.93,5.523c-1.712,3.068-5.674,4.768-9.682,5.7" transform="translate(-172.78 -149.826)"/><path class="e" d="" transform="translate(-218.859 -161.614)"/></g></g></svg>