<svg xmlns="http://www.w3.org/2000/svg" width="163.033" height="31.656" viewBox="0 0 163.033 31.656"><defs><style>.a{fill:#e44e41;}.b{fill:#e37d34;}.c{fill:#52b449;}.d{fill:#185ba5;}.e{fill:#005396;}</style></defs><g transform="translate(-144 -20.977)"><g transform="translate(144 20.977)"><path class="a" d="M142.715,199.558a33.245,33.245,0,0,1,5.491-1.254l.035,0,.474-.047s-1.834,8.5-6.964,12.618-10.517-.23-8.3-4.957c1.494-3.18,5.328-5.152,9.261-6.356" transform="translate(-131.798 -184.019)"/><path class="b" d="M145.471,163.966h-.035a33.009,33.009,0,0,1-5.6-.576c-4.05-.715-8.1-2.205-9.967-5.18-2.779-4.42,2.037-9.391,7.632-5.93s8.45,11.675,8.45,11.675l-.451.012Z" transform="translate(-129.055 -150.74)"/><path class="c" d="M197.059,162.4a33.137,33.137,0,0,1-5.565.869h-.036l-.476.014s2.422-8.353,7.828-12.1,10.475.964,7.93,5.523c-1.712,3.068-5.674,4.768-9.682,5.7" transform="translate(-172.78 -149.826)"/><path class="d" d="M203.893,211.058h.035a33.157,33.157,0,0,1,5.549.966c3.99,1,7.923,2.766,9.581,5.862,2.465,4.6-2.687,9.226-8.026,5.383s-7.615-12.235-7.615-12.235l.451.019Z" transform="translate(-181.559 -193.044)"/><path class="e" d="M379.687,168.314a1.843,1.843,0,0,1-1.815,1.814,1.708,1.708,0,0,1-1.264-.539,1.761,1.761,0,0,1-.529-1.275,1.805,1.805,0,0,1,1.792-1.793,1.761,1.761,0,0,1,1.275.529,1.709,1.709,0,0,1,.54,1.264m2.205,13.332a2.016,2.016,0,0,1-.425,1.448,1.939,1.939,0,0,1-1.414.43,3.628,3.628,0,0,1-2.746-1,4.018,4.018,0,0,1-.953-2.886v-8.386h.873a2.249,2.249,0,0,1,1.621.562,2.31,2.31,0,0,1,.585,1.735v5.791a1.591,1.591,0,0,0,.425,1.286,2.354,2.354,0,0,0,1.459.345h.575Zm-113.286-9.772a3.2,3.2,0,0,0-.9-.8,5.744,5.744,0,0,0-1.126-.529,6.122,6.122,0,0,0-1.195-.287,8.413,8.413,0,0,0-1.1-.08,5.088,5.088,0,0,0-1.953.367,4.6,4.6,0,0,0-1.551,1.033,4.729,4.729,0,0,0-1.022,1.6,5.624,5.624,0,0,0-.368,2.08,7.305,7.305,0,0,0,.368,2.424,4.9,4.9,0,0,0,1.022,1.746,4.077,4.077,0,0,0,1.585,1.046,5.817,5.817,0,0,0,2.034.345,6.388,6.388,0,0,0,1.183-.116,7.945,7.945,0,0,0,1.161-.31,5.963,5.963,0,0,0,1.022-.471,3.445,3.445,0,0,0,.793-.621h.115v1.173a2.3,2.3,0,0,1-.426,1.39,3.38,3.38,0,0,1-1.1.964,5.239,5.239,0,0,1-1.5.552,8.045,8.045,0,0,1-1.654.172,7.937,7.937,0,0,1-2.976-.563,7.542,7.542,0,0,1-2.475-1.585,7.412,7.412,0,0,1-1.678-2.47,8.146,8.146,0,0,1-.615-3.217,9.24,9.24,0,0,1,.581-3.331,7.809,7.809,0,0,1,1.632-2.619,7.244,7.244,0,0,1,2.532-1.711,8.528,8.528,0,0,1,3.275-.609,7.667,7.667,0,0,1,1.78.195,4.322,4.322,0,0,1,1.413.6,2.87,2.87,0,0,1,.931,1.011,2.9,2.9,0,0,1,.333,1.413v1.218Zm7.619,9.772a2.015,2.015,0,0,1-.425,1.448,1.937,1.937,0,0,1-1.413.43,3.627,3.627,0,0,1-2.745-1,4.015,4.015,0,0,1-.954-2.886v-8.386h.873a2.244,2.244,0,0,1,1.62.562,2.308,2.308,0,0,1,.587,1.735v5.791a1.59,1.59,0,0,0,.424,1.286,2.355,2.355,0,0,0,1.459.345h.574Zm-2.206-13.332a1.841,1.841,0,0,1-1.815,1.814,1.706,1.706,0,0,1-1.263-.539,1.765,1.765,0,0,1-.528-1.275,1.8,1.8,0,0,1,1.792-1.793,1.762,1.762,0,0,1,1.276.529,1.709,1.709,0,0,1,.539,1.264M287.083,175a2.512,2.512,0,0,0-1.171-.908,5.387,5.387,0,0,0-2.183-.379,3.374,3.374,0,0,0-1.287.252,3.338,3.338,0,0,0-1.08.7,3.507,3.507,0,0,0-.735,1.046A3.037,3.037,0,0,0,280.35,177a4.005,4.005,0,0,0,.919,2.745,3.164,3.164,0,0,0,2.5,1.045,5.361,5.361,0,0,0,2.137-.356,2.76,2.76,0,0,0,1.125-.792h.115v1.424a2.2,2.2,0,0,1-1,1.849,4.47,4.47,0,0,1-2.677.724,6.331,6.331,0,0,1-5.824-3.722,5.812,5.812,0,0,1-.517-2.458,7.133,7.133,0,0,1,.448-2.528,6.013,6.013,0,0,1,1.31-2.09,6.293,6.293,0,0,1,2.1-1.424,7.152,7.152,0,0,1,2.826-.529,4.241,4.241,0,0,1,1.355.208,3.319,3.319,0,0,1,1.069.574,2.73,2.73,0,0,1,.7.85,2.2,2.2,0,0,1,.253,1.034V175Zm12.562.529a2.379,2.379,0,0,1-1.378,2.354,11.027,11.027,0,0,1-4.435.654H291.81a2.729,2.729,0,0,0,1.137,1.862,3.876,3.876,0,0,0,2.331.688,8.908,8.908,0,0,0,2.011-.242,3.793,3.793,0,0,0,1.781-.93h.115v.965a2.759,2.759,0,0,1-.219,1.1,2.135,2.135,0,0,1-.747.885,4.108,4.108,0,0,1-1.39.6,8.788,8.788,0,0,1-2.125.218,6.047,6.047,0,0,1-2.25-.437A5.908,5.908,0,0,1,290.509,182a6.191,6.191,0,0,1-1.87-4.538,8.3,8.3,0,0,1,.445-2.792,6.156,6.156,0,0,1,1.243-2.125,5.439,5.439,0,0,1,1.911-1.344,6.212,6.212,0,0,1,2.445-.47,5.325,5.325,0,0,1,1.861.332,4.886,4.886,0,0,1,1.585.954,4.618,4.618,0,0,1,1.1,1.517,4.728,4.728,0,0,1,.413,2m-2.895-.377a1.637,1.637,0,0,0-.632-1.412,2.847,2.847,0,0,0-1.712-.463,2.375,2.375,0,0,0-1.023.22,2.7,2.7,0,0,0-.816.578,2.61,2.61,0,0,0-.54.845,3.065,3.065,0,0,0-.218,1.018l-.023.417h1.378q1.1,0,1.792-.07a4.99,4.99,0,0,0,1.091-.208,1.035,1.035,0,0,0,.552-.37,1.006,1.006,0,0,0,.149-.556m6.162-8.285a2.03,2.03,0,0,1,1.62.574,2.171,2.171,0,0,1,.494,1.47v7.4q.9-1.171,1.8-2.321a21.352,21.352,0,0,1,1.988-2.182,2.491,2.491,0,0,1,1.137-.667,5.8,5.8,0,0,1,1.322-.138h1.77v.114q-.323.276-.977.966t-1.39,1.516q-.735.828-1.46,1.677t-1.205,1.471q.735.919,1.482,1.838t1.573,1.769q.414.413.735.689a4.827,4.827,0,0,0,.6.448,3.477,3.477,0,0,0,.528.276q.254.1.529.2a2.6,2.6,0,0,1-.689,1.126,2.074,2.074,0,0,1-1.4.391,2.767,2.767,0,0,1-1.079-.231,2.847,2.847,0,0,1-.942-.62,33.423,33.423,0,0,1-2.241-2.573q-1.045-1.332-2.079-2.712v6.043l-.989.023q-2.113.021-2.113-2.182V166.866Zm22.435,11.671a5.468,5.468,0,0,1-.39,2.115,4.427,4.427,0,0,1-1.148,1.619,5.244,5.244,0,0,1-1.861,1.046,8.016,8.016,0,0,1-2.527.366,6.244,6.244,0,0,1-3.6-.849,2.632,2.632,0,0,1-1.206-2.252v-1.4h.07a7.614,7.614,0,0,0,1.872,1.207,5.937,5.937,0,0,0,2.515.494,3.946,3.946,0,0,0,2.446-.562,1.859,1.859,0,0,0,.678-1.506,1.972,1.972,0,0,0-.115-.712,1.262,1.262,0,0,0-.5-.563,4.38,4.38,0,0,0-1.138-.494q-.747-.231-1.988-.506a6.509,6.509,0,0,1-3.1-1.436,3.389,3.389,0,0,1-1.079-2.608,4.709,4.709,0,0,1,.4-1.907,4.927,4.927,0,0,1,1.161-1.632,5.65,5.65,0,0,1,1.86-1.137,6.844,6.844,0,0,1,2.483-.425,8.37,8.37,0,0,1,2.286.264,4.535,4.535,0,0,1,1.459.678,2.288,2.288,0,0,1,.77.931,2.563,2.563,0,0,1,.218,1v1.448h-.092a5.317,5.317,0,0,0-4.077-1.538,4.484,4.484,0,0,0-2.577.551,1.739,1.739,0,0,0-.745,1.47,1.341,1.341,0,0,0,.16.644,1.541,1.541,0,0,0,.572.551,5.348,5.348,0,0,0,1.123.483,18.4,18.4,0,0,0,1.809.459,6.175,6.175,0,0,1,3.208,1.54,3.663,3.663,0,0,1,1.053,2.664m12.739-3.009a2.378,2.378,0,0,1-1.378,2.354,11.025,11.025,0,0,1-4.435.654h-2.021a2.735,2.735,0,0,0,1.137,1.862,3.876,3.876,0,0,0,2.332.688,8.9,8.9,0,0,0,2.01-.242,3.787,3.787,0,0,0,1.78-.93h.116v.965a2.755,2.755,0,0,1-.219,1.1,2.14,2.14,0,0,1-.746.885,4.124,4.124,0,0,1-1.389.6,8.807,8.807,0,0,1-2.126.218,6.055,6.055,0,0,1-2.251-.437A5.91,5.91,0,0,1,328.951,182a6.2,6.2,0,0,1-1.87-4.538,8.288,8.288,0,0,1,.444-2.792,6.146,6.146,0,0,1,1.243-2.125,5.445,5.445,0,0,1,1.911-1.344,6.2,6.2,0,0,1,2.444-.47,5.32,5.32,0,0,1,1.861.332,4.895,4.895,0,0,1,1.585.954,4.619,4.619,0,0,1,1.1,1.517,4.721,4.721,0,0,1,.413,2m-2.894-.377a1.637,1.637,0,0,0-.632-1.412,2.844,2.844,0,0,0-1.711-.463,2.37,2.37,0,0,0-1.023.22,2.713,2.713,0,0,0-.816.578,2.61,2.61,0,0,0-.54.845,3.071,3.071,0,0,0-.218,1.018l-.023.417h1.378q1.1,0,1.793-.07a5,5,0,0,0,1.091-.208,1.029,1.029,0,0,0,.552-.37,1.007,1.007,0,0,0,.149-.556m16.869,1.687a9.811,9.811,0,0,1-.365,2.745,6.639,6.639,0,0,1-1.063,2.171,4.779,4.779,0,0,1-1.737,1.425,5.411,5.411,0,0,1-2.389.5,3.357,3.357,0,0,1-1.84-.517,3.759,3.759,0,0,1-1.269-1.32v5.467h-.971a2.262,2.262,0,0,1-.809-.149,2.1,2.1,0,0,1-1.181-1.091,2.065,2.065,0,0,1-.185-.9v-7.49a10.578,10.578,0,0,1,.355-2.826,5.884,5.884,0,0,1,1.112-2.206,5.029,5.029,0,0,1,1.926-1.424,7.016,7.016,0,0,1,2.8-.506,4.993,4.993,0,0,1,2.27.517,5.774,5.774,0,0,1,1.777,1.367,6.257,6.257,0,0,1,1.158,1.953,6.443,6.443,0,0,1,.413,2.276m-3.148.8a5.512,5.512,0,0,0-.72-3.193,2.553,2.553,0,0,0-2.209-.988,2.216,2.216,0,0,0-1.957,1,4.578,4.578,0,0,0-.675,2.607,4.39,4.39,0,0,0,.836,2.872,2.719,2.719,0,0,0,2.208,1.01,2.189,2.189,0,0,0,1.819-.906,3.836,3.836,0,0,0,.7-2.4m15.785-2.113a2.378,2.378,0,0,1-1.379,2.354,11.023,11.023,0,0,1-4.434.654h-2.021A2.726,2.726,0,0,0,358,180.4a3.88,3.88,0,0,0,2.333.688,8.922,8.922,0,0,0,2.011-.242,3.785,3.785,0,0,0,1.779-.93h.116v.965a2.743,2.743,0,0,1-.219,1.1,2.149,2.149,0,0,1-.746.885,4.13,4.13,0,0,1-1.39.6,8.8,8.8,0,0,1-2.126.218,6.043,6.043,0,0,1-2.25-.437A5.911,5.911,0,0,1,355.561,182a6.188,6.188,0,0,1-1.87-4.538,8.287,8.287,0,0,1,.445-2.792,6.13,6.13,0,0,1,1.243-2.125,5.429,5.429,0,0,1,1.911-1.344,6.2,6.2,0,0,1,2.444-.47,5.317,5.317,0,0,1,1.861.332,4.891,4.891,0,0,1,1.585.954,4.6,4.6,0,0,1,1.1,1.517,4.714,4.714,0,0,1,.414,2m-2.9-.377a1.635,1.635,0,0,0-.633-1.412,2.841,2.841,0,0,0-1.711-.463,2.37,2.37,0,0,0-1.022.22,2.692,2.692,0,0,0-.816.578,2.6,2.6,0,0,0-.54.845,3.042,3.042,0,0,0-.218,1.018l-.022.417h1.378q1.1,0,1.791-.07a5,5,0,0,0,1.093-.208,1.032,1.032,0,0,0,.551-.37,1,1,0,0,0,.149-.556m5.174-3.645a5.905,5.905,0,0,1,.046-.793,2.875,2.875,0,0,1,.149-.608,2.235,2.235,0,0,1,.276-.517c.114-.161.258-.341.425-.54a3.246,3.246,0,0,1,.7-.609,1.383,1.383,0,0,1,.747-.241h.712V171h4.3v1.263a1.477,1.477,0,0,1-.448.978,1.791,1.791,0,0,1-1.39.493h-2.458v4.849a2.392,2.392,0,0,0,.505,1.723,1.962,1.962,0,0,0,1.447.506,4.388,4.388,0,0,0,2.229-.437h.115v1.1a1.845,1.845,0,0,1-.678,1.516,3.169,3.169,0,0,1-2.033.552,4.6,4.6,0,0,1-3.5-1.206,4.748,4.748,0,0,1-1.137-3.389Z" transform="translate(-218.859 -161.614)"/><path class="e" d="M277.58,230.7a1.636,1.636,0,0,1-1.611,1.61,1.513,1.513,0,0,1-1.122-.479,1.566,1.566,0,0,1-.469-1.131,1.6,1.6,0,0,1,1.592-1.592,1.565,1.565,0,0,1,1.132.47,1.516,1.516,0,0,1,.479,1.123" transform="translate(-231.662 -205.801)"/><path class="e" d="M344.457,230.962a1.523,1.523,0,0,1-1.5,1.5,1.409,1.409,0,0,1-1.045-.447,1.455,1.455,0,0,1-.436-1.053,1.49,1.49,0,0,1,1.481-1.481,1.458,1.458,0,0,1,1.054.437,1.412,1.412,0,0,1,.445,1.044" transform="translate(-279.038 -206.067)"/></g></g></svg>