<svg xmlns="http://www.w3.org/2000/svg" width="196.677" height="52" viewBox="0 0 196.677 52"><defs><style>.a{fill:#a6a6a6;}.b{fill:#fff;}</style></defs><g transform="translate(-1178 -1339.8)"><g transform="translate(1178 1339.8)"><path class="a" d="M184.289,0H12.4c-.477,0-.948,0-1.424,0-.4,0-.793.01-1.195.017A17.334,17.334,0,0,0,7.172.248,8.737,8.737,0,0,0,4.7,1.063,8.337,8.337,0,0,0,2.6,2.6,8.126,8.126,0,0,0,1.065,4.7,8.613,8.613,0,0,0,.252,7.177a16.972,16.972,0,0,0-.233,2.6c-.012.4-.013.8-.019,1.2V41.027c.006.4.008.794.019,1.2a16.943,16.943,0,0,0,.233,2.6A8.576,8.576,0,0,0,1.065,47.3,8.059,8.059,0,0,0,2.6,49.4a8.167,8.167,0,0,0,2.1,1.533,8.69,8.69,0,0,0,2.471.819,17.508,17.508,0,0,0,2.605.23c.4.009.8.014,1.195.014.476,0,.946,0,1.424,0H184.289c.467,0,.941,0,1.409,0,.4,0,.8-.005,1.2-.014a17.252,17.252,0,0,0,2.6-.229,8.875,8.875,0,0,0,2.48-.82,8.139,8.139,0,0,0,2.1-1.533,8.348,8.348,0,0,0,1.537-2.1,8.613,8.613,0,0,0,.8-2.477,17.628,17.628,0,0,0,.24-2.6c.005-.4.005-.8.005-1.2.01-.473.01-.943.01-1.422V12.4c0-.476,0-.948-.01-1.42,0-.4,0-.8-.005-1.2a17.646,17.646,0,0,0-.24-2.6,8.65,8.65,0,0,0-.8-2.474,8.412,8.412,0,0,0-3.639-3.64A8.822,8.822,0,0,0,189.5.248a16.92,16.92,0,0,0-2.6-.229c-.4-.006-.8-.014-1.2-.017-.468,0-.943,0-1.409,0Z"/><path d="M10.717,50.6c-.4,0-.783-.005-1.175-.014a16.38,16.38,0,0,1-2.431-.212,7.637,7.637,0,0,1-2.153-.712,7.019,7.019,0,0,1-1.816-1.321,6.939,6.939,0,0,1-1.327-1.816,7.444,7.444,0,0,1-.706-2.154,16.128,16.128,0,0,1-.216-2.438c-.009-.274-.02-1.187-.02-1.187V10.715s.012-.9.02-1.162a16.061,16.061,0,0,1,.214-2.434,7.487,7.487,0,0,1,.707-2.161A6.939,6.939,0,0,1,3.134,3.141a7.255,7.255,0,0,1,1.823-1.33A7.6,7.6,0,0,1,7.105,1.1,16.5,16.5,0,0,1,9.544.891L10.717.875H185.43l1.187.017a15.985,15.985,0,0,1,2.415.211,7.734,7.734,0,0,1,2.172.712,7.266,7.266,0,0,1,3.14,3.146,7.52,7.52,0,0,1,.7,2.144,17.055,17.055,0,0,1,.225,2.453c0,.368,0,.764,0,1.157.01.488.01.952.01,1.42V39.342c0,.472,0,.933-.01,1.4,0,.423,0,.81-.005,1.209a16.272,16.272,0,0,1-.222,2.409,7.423,7.423,0,0,1-.7,2.171,7.109,7.109,0,0,1-1.319,1.8,7.015,7.015,0,0,1-1.82,1.329,7.591,7.591,0,0,1-2.168.715,16.175,16.175,0,0,1-2.43.212c-.381.009-.779.014-1.166.014l-1.409,0Z" transform="translate(0.262 0.263)"/></g><g transform="translate(1190.963 1351.136)"><path class="b" d="M29.208,22.2a6.432,6.432,0,0,1,3.063-5.4A6.584,6.584,0,0,0,27.083,14c-2.183-.229-4.3,1.307-5.412,1.307-1.134,0-2.846-1.284-4.69-1.245A6.91,6.91,0,0,0,11.165,17.6c-2.514,4.354-.638,10.751,1.769,14.27,1.205,1.723,2.613,3.647,4.456,3.579,1.8-.075,2.476-1.151,4.653-1.151,2.157,0,2.788,1.151,4.668,1.108,1.936-.032,3.154-1.732,4.317-3.471A14.246,14.246,0,0,0,33,27.918,6.216,6.216,0,0,1,29.208,22.2Z" transform="translate(-9.972 -7.144)"/><path class="b" d="M23.011,13.258A6.33,6.33,0,0,0,24.46,8.72a6.445,6.445,0,0,0-4.17,2.158A6.031,6.031,0,0,0,18.8,15.247,5.328,5.328,0,0,0,23.011,13.258Z" transform="translate(-7.326 -8.72)"/></g><g transform="translate(1224.254 1370.922)"><path class="b" d="M35.58,24.646a.725.725,0,1,1,0,.021Zm.118,9.213V26.1H36.9v7.756Z" transform="translate(-35.58 -23.94)"/><path class="b" d="M38.113,27.094h1.113v.93h.086a1.755,1.755,0,0,1,1.747-1.043A1.9,1.9,0,0,1,43.1,28.738a1.984,1.984,0,0,1-.014.421v3.789H41.93v-3.5c0-.941-.41-1.408-1.264-1.408a1.34,1.34,0,0,0-1.4,1.483v3.424H38.113Z" transform="translate(-34.82 -23.029)"/><path class="b" d="M43.089,30.518c0-1.849.95-3.021,2.43-3.021a1.934,1.934,0,0,1,1.8,1.027H47.4V25.31h1.156v8.138H47.448v-.926h-.091a2.031,2.031,0,0,1-1.838,1.023C44.03,33.545,43.089,32.373,43.089,30.518Zm1.193,0c0,1.242.585,1.99,1.564,1.99s1.576-.758,1.576-1.985-.608-1.988-1.576-1.988-1.564.751-1.564,1.982Z" transform="translate(-33.327 -23.529)"/><path class="b" d="M48.636,25.918a.748.748,0,1,1,.79.7h-.043a.712.712,0,0,1-.747-.673Zm.172,1.732h1.15V33.5h-1.15Z" transform="translate(-31.664 -23.584)"/><path class="b" d="M51.087,27.09H52.2v.9h.087a1.588,1.588,0,0,1,1.581-1,2.53,2.53,0,0,1,.515.048v1.14a3.252,3.252,0,0,0-.645-.069,1.371,1.371,0,0,0-1.489,1.243,1.131,1.131,0,0,0-.005.133v3.457H51.087Z" transform="translate(-30.928 -23.025)"/><path class="b" d="M54.554,25.918a.748.748,0,1,1,.79.7H55.3a.712.712,0,0,1-.748-.673Zm.172,1.732h1.15V33.5h-1.15Z" transform="translate(-29.888 -23.584)"/><path class="b" d="M57,27.094h1.111v.93H58.2a1.754,1.754,0,0,1,1.747-1.043,1.9,1.9,0,0,1,2.025,2.178v3.789H60.82v-3.5c0-.941-.408-1.408-1.262-1.408a1.343,1.343,0,0,0-1.4,1.278,1.206,1.206,0,0,0,.007.205v3.424H57Z" transform="translate(-29.152 -23.029)"/></g><g transform="translate(1222.76 1350.47)"><path class="b" d="M44.667,20.2H38.513l-1.477,4.363H34.43L40.258,8.415h2.708l5.829,16.143H46.143Zm-5.516-2.014h4.878l-2.4-7.081h-.068Z" transform="translate(-34.43 -8.146)"/><path class="b" d="M57.72,17.694c0,3.658-1.958,6.007-4.911,6.007a3.99,3.99,0,0,1-3.7-2.059h-.056v5.83H46.634V11.809h2.339v1.958h.044a4.175,4.175,0,0,1,3.748-2.081C55.751,11.685,57.72,14.046,57.72,17.694Zm-2.483,0c0-2.383-1.231-3.949-3.111-3.949-1.846,0-3.088,1.6-3.088,3.949,0,2.371,1.242,3.96,3.088,3.96,1.88,0,3.111-1.555,3.111-3.96Z" transform="translate(-30.769 -7.165)"/><path class="b" d="M67.684,17.694c0,3.658-1.957,6.007-4.91,6.007a3.99,3.99,0,0,1-3.7-2.059h-.056v5.83H56.6V11.809h2.337v1.958h.045a4.173,4.173,0,0,1,3.747-2.081C65.716,11.685,67.684,14.046,67.684,17.694Zm-2.482,0c0-2.383-1.231-3.949-3.111-3.949-1.846,0-3.088,1.6-3.088,3.949,0,2.371,1.242,3.96,3.088,3.96,1.88,0,3.111-1.555,3.111-3.96Z" transform="translate(-27.779 -7.165)"/><path class="b" d="M72.283,20.124c.179,1.6,1.734,2.652,3.86,2.652,2.037,0,3.5-1.052,3.5-2.495,0-1.253-.884-2-2.977-2.518l-2.092-.5c-2.964-.715-4.341-2.1-4.341-4.351,0-2.786,2.427-4.7,5.875-4.7,3.411,0,5.75,1.914,5.828,4.7H79.5c-.146-1.612-1.478-2.584-3.424-2.584S72.8,11.307,72.8,12.74c0,1.141.85,1.812,2.931,2.327l1.778.437c3.312.783,4.688,2.114,4.688,4.475,0,3.02-2.4,4.911-6.232,4.911-3.579,0-6-1.846-6.153-4.767Z" transform="translate(-23.816 -8.208)"/><path class="b" d="M84.3,9.637v2.786h2.239v1.912H84.3v6.49c0,1.007.449,1.477,1.433,1.477a7.389,7.389,0,0,0,.794-.056v1.9a6.539,6.539,0,0,1-1.342.112c-2.383,0-3.312-.894-3.312-3.177V14.335H80.165V12.423h1.711V9.637Z" transform="translate(-20.709 -7.779)"/><path class="b" d="M86.067,17.7c0-3.7,2.181-6.031,5.582-6.031s5.583,2.327,5.583,6.031-2.159,6.031-5.583,6.031S86.067,21.413,86.067,17.7Zm8.7,0c0-2.54-1.164-4.039-3.121-4.039S88.528,15.17,88.528,17.7c0,2.551,1.164,4.039,3.121,4.039S94.771,20.249,94.771,17.7Z" transform="translate(-18.939 -7.17)"/><path class="b" d="M96.188,11.809h2.3v2h.056a2.809,2.809,0,0,1,2.831-2.127,3.775,3.775,0,0,1,.828.09v2.261a3.37,3.37,0,0,0-1.086-.147,2.435,2.435,0,0,0-2.531,2.335,2.551,2.551,0,0,0,.013.373v6.981H96.188Z" transform="translate(-15.903 -7.165)"/><path class="b" d="M111.836,20.126c-.325,2.137-2.4,3.6-5.067,3.6-3.424,0-5.55-2.294-5.55-5.975s2.137-6.087,5.448-6.087c3.256,0,5.3,2.237,5.3,5.806V18.3h-8.313v.146a3.065,3.065,0,0,0,2.783,3.324,3.142,3.142,0,0,0,.383.01,2.665,2.665,0,0,0,2.718-1.656Zm-8.167-3.513h5.884a2.831,2.831,0,0,0-2.669-2.983c-.072,0-.144-.005-.217,0a2.981,2.981,0,0,0-3,2.963Z" transform="translate(-14.393 -7.17)"/><path class="b" d="M110.738,14.322l1.319-5.906h2.349l-1.6,5.906Z" transform="translate(-11.538 -8.146)"/><path class="b" d="M113.479,18.674c0-3.636,2-6.009,4.922-6.009a3.971,3.971,0,0,1,3.692,2.081h.045V8.416h2.427V24.559h-2.349v-2h-.044a4.015,4.015,0,0,1-3.748,2.124C115.481,24.682,113.479,22.31,113.479,18.674Zm2.471,0c0,2.417,1.232,3.96,3.111,3.96,1.858,0,3.1-1.566,3.1-3.96,0-2.372-1.242-3.949-3.1-3.949-1.879,0-3.111,1.555-3.111,3.949Z" transform="translate(-10.715 -8.146)"/><path class="b" d="M123.645,20.238c0-2.058,1.577-3.3,4.373-3.468l3.223-.178v-.9c0-1.309-.861-2.047-2.326-2.047a2.252,2.252,0,0,0-2.474,1.656h-2.259c.068-2.125,2.046-3.636,4.8-3.636,2.809,0,4.666,1.533,4.666,3.848v8.066h-2.315V21.647h-.056a4.207,4.207,0,0,1-3.714,2.138,3.569,3.569,0,0,1-3.9-3.2A3.381,3.381,0,0,1,123.645,20.238Zm7.6-1.062v-.906l-2.9.178c-1.443.091-2.259.716-2.259,1.722,0,1.03.85,1.7,2.148,1.7a2.82,2.82,0,0,0,3.006-2.623l0-.073Z" transform="translate(-7.666 -7.17)"/><path class="b" d="M133.232,11.814h2.3v2h.056a3.763,3.763,0,0,1,3.7-2.137c2.6,0,4.085,1.667,4.085,4.363v7.54h-2.427V16.512c0-1.767-.818-2.751-2.518-2.751a2.733,2.733,0,0,0-2.8,2.665,2.631,2.631,0,0,0,.016.378v6.778h-2.415Z" transform="translate(-4.789 -7.17)"/></g></g></svg>