<svg xmlns="http://www.w3.org/2000/svg" xmlns:xlink="http://www.w3.org/1999/xlink" width="23.41" height="22.862" viewBox="0 0 23.41 22.862"><defs><style>.a{fill:none;}.b{clip-path:url(#a);}.c{fill:#fff;}</style><clipPath id="a"><rect class="a" width="23.41" height="22.862" transform="translate(0 0)"/></clipPath></defs><g transform="translate(0 0)"><g class="b"><path class="c" d="M22.614,4.116a2.72,2.72,0,0,0-1.935-.806H6.389l-.115-.626A3.266,3.266,0,0,0,3.058,0H1A1,1,0,1,0,1,2H3.058A1.27,1.27,0,0,1,4.307,3.043l.228,1.244c0,.008,0,.015,0,.023a1,1,0,0,0,.081.394L6.59,15.466A3.27,3.27,0,0,0,9.807,18.15h9.478a1,1,0,0,0,0-2H9.807a1.271,1.271,0,0,1-1.25-1.044l-.024-.133H19.482a2.743,2.743,0,0,0,2.679-2.217l1.2-6.193a2.662,2.662,0,0,0,.049-.51,2.719,2.719,0,0,0-.8-1.937M21.4,6.185l-1.2,6.191a.738.738,0,0,1-.718.6H8.165L6.757,5.31h13.92a.736.736,0,0,1,.733.74.744.744,0,0,1-.013.135"/><path class="c" d="M10.215,19a1.932,1.932,0,1,0,1.932,1.932A1.932,1.932,0,0,0,10.215,19"/><path class="c" d="M18.6,19a1.932,1.932,0,1,0,1.932,1.932A1.932,1.932,0,0,0,18.6,19"/></g></g></svg>