<svg xmlns="http://www.w3.org/2000/svg" width="26.066" height="26.066" viewBox="0 0 26.066 26.066"><defs><style>.a{fill:#e4405f;}</style></defs><path class="a" d="M13.033,0C9.492,0,9.05.016,7.66.078A9.61,9.61,0,0,0,4.5.684a6.382,6.382,0,0,0-2.309,1.5A6.359,6.359,0,0,0,.684,4.5,9.582,9.582,0,0,0,.078,7.66C.013,9.05,0,9.492,0,13.033s.016,3.983.078,5.373a9.616,9.616,0,0,0,.606,3.164,6.391,6.391,0,0,0,1.5,2.309,6.373,6.373,0,0,0,2.309,1.5,9.622,9.622,0,0,0,3.164.606c1.39.065,1.832.078,5.373.078s3.983-.016,5.373-.078a9.644,9.644,0,0,0,3.164-.606,6.661,6.661,0,0,0,3.812-3.812,9.616,9.616,0,0,0,.606-3.164c.065-1.39.078-1.832.078-5.373S26.05,9.05,25.988,7.66A9.638,9.638,0,0,0,25.382,4.5a6.4,6.4,0,0,0-1.5-2.309,6.35,6.35,0,0,0-2.309-1.5A9.588,9.588,0,0,0,18.406.078C17.016.013,16.573,0,13.033,0Zm0,2.346c3.479,0,3.894.017,5.267.077a7.181,7.181,0,0,1,2.419.451,4.289,4.289,0,0,1,2.474,2.473,7.2,7.2,0,0,1,.449,2.419c.062,1.375.076,1.788.076,5.267s-.016,3.894-.08,5.267a7.334,7.334,0,0,1-.457,2.419,4.138,4.138,0,0,1-.976,1.5,4.066,4.066,0,0,1-1.5.973,7.249,7.249,0,0,1-2.427.449c-1.384.062-1.791.076-5.277.076s-3.895-.016-5.277-.08a7.39,7.39,0,0,1-2.428-.457A4.036,4.036,0,0,1,3.8,22.2a3.957,3.957,0,0,1-.977-1.5,7.4,7.4,0,0,1-.456-2.427c-.049-1.368-.066-1.791-.066-5.261s.017-3.895.066-5.279a7.388,7.388,0,0,1,.456-2.426,3.863,3.863,0,0,1,.977-1.5,3.855,3.855,0,0,1,1.5-.975,7.213,7.213,0,0,1,2.412-.457c1.385-.049,1.792-.065,5.277-.065Zm0,3.995a6.692,6.692,0,1,0,6.692,6.692A6.692,6.692,0,0,0,13.033,6.341Zm0,11.037a4.344,4.344,0,1,1,4.344-4.344A4.343,4.343,0,0,1,13.033,17.377Zm8.521-11.3A1.564,1.564,0,1,1,19.99,4.514,1.565,1.565,0,0,1,21.554,6.077Z"/></svg>