<svg xmlns="http://www.w3.org/2000/svg" width="28.253" height="22.963" viewBox="0 0 28.253 22.963"><defs><style>.a{fill:#1da1f2;}</style></defs><path class="a" d="M28.2,4.981a11.772,11.772,0,0,1-3.325.912,5.836,5.836,0,0,0,2.546-3.205,11.963,11.963,0,0,1-3.681,1.394A5.79,5.79,0,0,0,13.718,8.034a5.927,5.927,0,0,0,.149,1.323A16.4,16.4,0,0,1,1.931,3.323a5.676,5.676,0,0,0-.784,2.913,5.792,5.792,0,0,0,2.576,4.822A5.773,5.773,0,0,1,1.1,10.333V10.4a5.8,5.8,0,0,0,4.645,5.682,5.845,5.845,0,0,1-2.6.1,5.811,5.811,0,0,0,5.42,4.022,11.616,11.616,0,0,1-7.183,2.478A12.293,12.293,0,0,1,0,22.608a16.475,16.475,0,0,0,8.9,2.6c10.658,0,16.479-8.824,16.479-16.464,0-.246,0-.494-.018-.742a11.7,11.7,0,0,0,2.9-3Z" transform="translate(0 -2.246)"/></svg>