<svg xmlns="http://www.w3.org/2000/svg" width="28" height="27" viewBox="0 0 28 27"><defs><style>.a{fill:#e37c33;}.b{fill:#fff;stroke:rgba(0,0,0,0);stroke-miterlimit:10;}</style></defs><g transform="translate(0.446 -0.076)"><ellipse class="a" cx="14" cy="13.5" rx="14" ry="13.5" transform="translate(-0.446 0.076)"/><path class="b" d="M.113,10.5a.378.378,0,0,1-.1-.369L.873,7.037a1.989,1.989,0,0,1,.524-.9L7.253.276a.98.98,0,0,1,1.364,0L10.337,2a.97.97,0,0,1,0,1.363L4.482,9.227a2,2,0,0,1-.9.525l-3.1.849a.3.3,0,0,1-.1.012A.391.391,0,0,1,.113,10.5Z" transform="translate(9.657 8.355)"/></g></svg>