<svg xmlns="http://www.w3.org/2000/svg" width="34.222" height="23.917" viewBox="0 0 34.222 23.917"><defs><style>.a{fill:red;}</style></defs><path class="a" d="M33.513,7.309a4.292,4.292,0,0,0-2.978-2.978c-2.667-.715-13.4-.715-13.4-.715S6.423,3.6,3.728,4.331A4.292,4.292,0,0,0,.75,7.309,44.666,44.666,0,0,0,.005,15.59,44.564,44.564,0,0,0,.75,23.839a4.292,4.292,0,0,0,2.978,2.978c2.665.716,13.4.716,13.4.716s10.707,0,13.4-.716a4.292,4.292,0,0,0,2.978-2.978,44.557,44.557,0,0,0,.713-8.249A44.648,44.648,0,0,0,33.513,7.309ZM13.7,20.712V10.452L22.64,15.59Z" transform="translate(-0.005 -3.616)"/></svg>